<?xml version="1.0" encoding="utf-8"?>
<!-- Generator: Adobe Illustrator 25.2.0, SVG Export Plug-In . SVG Version: 6.00 Build 0)  -->
<svg version="1.1" id="Layer_1" xmlns="http://www.w3.org/2000/svg" xmlns:xlink="http://www.w3.org/1999/xlink" x="0px" y="0px"
	 viewBox="0 0 94.5 11.8" style="enable-background:new 0 0 94.5 11.8;" xml:space="preserve">
<style type="text/css">
	.st0{enable-background:new    ;}
</style>
<g id="Layer_2_1_">
	<g id="Layer_1-2">
		<g class="st0">
			<path d="M8.7,9.7l-3-6.1L3.1,9h3.5l0.5,0.8H1.8l3.9-7.9l4,7.9H8.7z"/>
		</g>
		<g class="st0">
			<path d="M13.5,2.3h0.8V9h4.9v0.8h-5.7V2.3z"/>
		</g>
		<g class="st0">
			<path d="M21.1,2.3h6.5V3h-2.9v6.7H24V3h-2.8V2.3z"/>
			<path d="M37.3,9.7l-2-3.9h1.2c0.2,0,0.4,0,0.5-0.1s0.2-0.2,0.3-0.3c0.1-0.1,0.2-0.3,0.2-0.4s0.1-0.3,0.1-0.5c0-0.2,0-0.3-0.1-0.5
				c-0.1-0.2-0.1-0.3-0.2-0.5c-0.1-0.1-0.2-0.3-0.4-0.3C36.7,3.1,36.6,3,36.4,3h-3.7v6.7h-0.8V2.3h4.7c0.2,0,0.5,0.1,0.7,0.2
				c0.2,0.1,0.4,0.3,0.6,0.5c0.2,0.2,0.3,0.4,0.4,0.7c0.1,0.3,0.1,0.6,0.1,0.9c0,0.3,0,0.5-0.1,0.8c-0.1,0.3-0.2,0.5-0.4,0.7
				s-0.4,0.4-0.6,0.5c-0.2,0.1-0.5,0.2-0.7,0.2l1.6,3.2H37.3z"/>
			<path d="M42.5,6V2.3h0.8v4.1c0,0.4,0.2,0.7,0.3,1c0.2,0.3,0.4,0.6,0.7,0.8c0.3,0.2,0.6,0.4,0.9,0.6C45.6,8.9,46,9,46.3,9
				s0.7-0.1,1.1-0.2c0.3-0.1,0.6-0.3,0.9-0.6C48.6,8,48.8,7.7,49,7.4c0.2-0.3,0.3-0.6,0.3-1V2.3h0.8V6c0,0.5-0.1,1-0.3,1.5
				S49.4,8.3,49,8.7c-0.3,0.3-0.7,0.6-1.2,0.8c-0.5,0.2-1,0.3-1.5,0.3s-1-0.1-1.5-0.3C44.4,9.3,44,9,43.6,8.7
				c-0.3-0.3-0.6-0.7-0.8-1.2S42.5,6.5,42.5,6z"/>
			<path d="M61.9,2.3l-4,7.9L54,2.3h1l3,6.1l3-6.1H61.9z"/>
			<path d="M65.7,2.3h6.4V3h-2.8v6h2.8v0.8h-6.4V9h2.8V3h-2.8V2.3z"/>
		</g>
		<g class="st0">
			<path d="M76.3,2.3h6.5V3h-2.9v6.7h-0.8V3h-2.8V2.3z"/>
		</g>
		<g class="st0">
			<path d="M91.8,9.7l-3-6.1L86.1,9h3.5l0.5,0.8h-5.4l3.9-7.9l4,7.9H91.8z"/>
		</g>
	</g>
</g>
</svg>
